<svg width="125" height="21" viewBox="0 0 125 21" fill="none"
	xmlns="http://www.w3.org/2000/svg">
	<path d="M6.02536 8.34517C5.40953 8.55069 4.73149 8.2172 4.64615 7.57362C4.4982 6.45797 4.65688 5.31508 5.11633 4.27147C5.73485 2.86657 6.85415 1.74218 8.25623 1.1173C9.65831 0.492417 11.2428 0.411782 12.7011 0.891099C13.7843 1.24715 14.7403 1.89325 15.4711 2.74916C15.8926 3.24291 15.6873 3.97009 15.1227 4.29065C14.5582 4.61121 13.8496 4.39448 13.3734 3.95324C12.9729 3.58216 12.4943 3.2979 11.967 3.12458C11.0635 2.82763 10.0819 2.87759 9.21329 3.26471C8.34468 3.65184 7.65125 4.34842 7.26807 5.21878C7.04441 5.72679 6.9358 6.27278 6.94399 6.81871C6.95373 7.46786 6.6412 8.13965 6.02536 8.34517Z" fill="#C71515"/>
	<path fill-rule="evenodd" clip-rule="evenodd" d="M2.38642 7.51318C0.755063 7.51318 -0.394605 9.11457 0.127069 10.6603L2.8097 18.6088C3.13686 19.5782 4.04595 20.2308 5.06905 20.2308H16.2663C17.3295 20.2308 18.2643 19.527 18.558 18.5051L20.8433 10.5566C21.2814 9.03247 20.1374 7.51318 18.5515 7.51318H2.38642ZM14.8517 12.191C15.3456 12.191 15.7459 12.5914 15.7459 13.0853V17.2582C15.7459 17.7521 15.3456 18.1524 14.8517 18.1524C14.3578 18.1524 13.9575 17.7521 13.9575 17.2582V13.0853C13.9575 12.5914 14.3578 12.191 14.8517 12.191ZM12.1687 14.8737C12.1687 14.3799 11.7683 13.9795 11.2745 13.9795C10.7806 13.9795 10.3802 14.3799 10.3802 14.8737V17.2583C10.3802 17.7521 10.7806 18.1525 11.2745 18.1525C11.7683 18.1525 12.1687 17.7521 12.1687 17.2583V14.8737ZM7.6978 15.768C8.19165 15.768 8.59201 16.1683 8.59201 16.6622V17.2583C8.59201 17.7522 8.19165 18.1526 7.6978 18.1526C7.20394 18.1526 6.80359 17.7522 6.80359 17.2583V16.6622C6.80359 16.1683 7.20394 15.768 7.6978 15.768Z" fill="#F3A4A4"/>
	<path fill-rule="evenodd" clip-rule="evenodd" d="M17.9844 7.63264L0.549316 11.9914L2.80163 18.6206C3.13019 19.5876 4.03811 20.238 5.05943 20.238H16.2655C17.3263 20.238 18.2595 19.5373 18.5554 18.5187L20.8526 10.6112C21.3659 8.84431 19.7695 7.18638 17.9844 7.63264ZM14.8456 12.198C15.3395 12.198 15.7398 12.5984 15.7398 13.0922V17.2652C15.7398 17.7591 15.3395 18.1594 14.8456 18.1594C14.3517 18.1594 13.9514 17.7591 13.9514 17.2652V13.0922C13.9514 12.5984 14.3517 12.198 14.8456 12.198ZM12.1629 14.8809C12.1629 14.387 11.7625 13.9866 11.2686 13.9866C10.7748 13.9866 10.3744 14.387 10.3744 14.8809V17.2654C10.3744 17.7593 10.7748 18.1596 11.2686 18.1596C11.7625 18.1596 12.1629 17.7593 12.1629 17.2654V14.8809ZM7.69169 15.775C8.18555 15.775 8.5859 16.1753 8.5859 16.6692V17.2653C8.5859 17.7592 8.18555 18.1595 7.69169 18.1595C7.19783 18.1595 6.79748 17.7592 6.79748 17.2653V16.6692C6.79748 16.1753 7.19783 15.775 7.69169 15.775Z" fill="#C71515"/>
	<path fill-rule="evenodd" clip-rule="evenodd" d="M41.6796 8.34133C43.3837 8.83248 44.5279 10.1305 45.1319 12.0132C45.1394 12.0499 45.1467 12.0853 45.1538 12.1197C45.3006 12.8324 45.3659 13.1496 45.4071 16.0944C45.4239 17.7933 45.4033 19.1435 45.3935 19.7876C45.393 19.8204 45.3925 19.8514 45.3921 19.8805C45.3897 20.0378 45.2719 20.17 45.1159 20.1901L44.0698 20.1901C43.8038 20.1901 43.5186 20.1947 43.2584 20.1989C43.0982 20.2015 42.9475 20.2039 42.8166 20.205C42.5413 20.2074 42.3591 20.0067 42.3591 19.7314V16.5271C42.3591 12.8318 42.2433 12.5919 41.7874 12.0132C40.752 11.0309 39.2847 11.2939 38.616 12.5919C38.6084 12.6057 38.6 12.6198 38.5909 12.6351C38.4793 12.8216 38.2578 13.1917 38.2203 15.6054C38.2217 15.7624 38.2236 15.9276 38.226 16.1017C38.2419 17.7054 38.2332 18.8132 38.2275 19.5341C38.2269 19.6087 38.2263 19.6792 38.2258 19.7457C38.2241 19.9812 38.0433 20.1775 37.8086 20.1973H37.049C36.7831 20.1973 36.4978 20.2019 36.2377 20.2061C36.0774 20.2087 35.9267 20.2112 35.7958 20.2123C35.5206 20.2146 35.3383 20.014 35.3383 19.7387V16.5344C35.3383 12.8391 35.2225 12.5992 34.7667 12.0205C33.7312 11.0382 32.2639 11.3011 31.5952 12.5992C31.4873 12.798 31.114 13.7819 31.114 16.3546C31.114 17.9707 31.0982 18.9594 31.0867 19.5445C31.0795 19.9054 30.7823 20.1973 30.4214 20.1973L28.9807 20.1973C28.6198 20.1973 28.3277 19.9056 28.3277 19.5447L28.3276 16.6513C28.3276 12.5233 28.3924 12.079 29.2552 10.6172C29.8916 9.54138 30.9917 8.68772 32.2105 8.31352C32.7713 8.1498 34.0224 8.1615 34.6588 8.3486C35.5644 8.60962 36.3074 9.09852 36.8955 9.78196C37.5233 9.10283 38.346 8.57806 39.2312 8.30625C39.7921 8.14253 41.0432 8.15423 41.6796 8.34133Z" fill="black"/>
	<path fill-rule="evenodd" clip-rule="evenodd" d="M53.2899 10.9547C55.0384 11.3967 56.526 12.8423 56.8738 14.4353C56.9317 14.7299 56.9607 15.9178 56.951 17.5384L56.929 19.5359C56.9251 19.8853 56.6448 20.1687 56.2955 20.1762L55.6469 20.1903C54.4008 20.2179 54.3718 20.2087 54.2559 20.0061C54.1979 19.8864 54.14 19.7851 54.1303 19.7759C54.1207 19.7575 53.8695 19.8404 53.5797 19.9509C52.9035 20.1995 51.5608 20.2271 50.7879 19.9969C48.6724 19.3708 47.291 17.5844 47.291 15.4758C47.291 14.0854 47.7933 13.0173 48.8849 12.032C50.0248 11.0099 51.8022 10.5772 53.2899 10.9547ZM49.7569 15.5289C49.7569 14.6053 50.4167 13.6915 51.3136 13.3869C53.3032 12.6991 55.1589 14.6937 54.2517 16.541C53.8599 17.3565 53.128 17.779 52.1177 17.779C50.7878 17.7888 49.7672 16.8062 49.7569 15.5289Z" fill="black"/>
	<path fill-rule="evenodd" clip-rule="evenodd" d="M111.134 10.9801C112.882 11.4221 114.37 12.8677 114.718 14.4607C114.775 14.7553 114.804 15.9432 114.795 17.5638L114.773 19.5613C114.769 19.9107 114.489 20.194 114.139 20.2016L113.491 20.2157C112.245 20.2433 112.216 20.2341 112.1 20.0315C112.042 19.9118 111.984 19.8105 111.974 19.8013C111.964 19.7829 111.713 19.8658 111.423 19.9763C110.747 20.2249 109.405 20.2525 108.632 20.0223C106.516 19.3961 105.135 17.6098 105.135 15.5012C105.135 14.1108 105.637 13.0427 106.729 12.0574C107.869 11.0353 109.646 10.6025 111.134 10.9801ZM107.601 15.5542C107.601 14.6306 108.261 13.7168 109.158 13.4122C111.147 12.7244 113.003 14.719 112.096 16.5662C111.704 17.3818 110.972 17.8043 109.962 17.8043C108.632 17.8141 107.611 16.8315 107.601 15.5542Z" fill="black"/>
	<path d="M67.5454 8.74573C67.5454 8.66303 67.5478 8.58763 67.5527 8.51953C67.5575 8.45142 67.5768 8.39305 67.6106 8.3444C67.6493 8.29575 67.7073 8.25927 67.7846 8.23494C67.8619 8.20576 67.9706 8.19116 68.1107 8.19116H69.8428C69.9346 8.19116 70.0095 8.20819 70.0675 8.24224C70.1303 8.27143 70.1786 8.31035 70.2125 8.35899C70.2511 8.40764 70.2753 8.46115 70.2849 8.51953C70.2994 8.57304 70.3067 8.62412 70.3067 8.67276V14.0725L72.9158 11.1537C73.0414 11.0127 73.1912 10.9421 73.3651 10.9421H75.5901C75.8558 10.9421 75.9887 11.0467 75.9887 11.2559C75.9887 11.3094 75.979 11.3532 75.9597 11.3872C75.9452 11.4213 75.9114 11.4699 75.8582 11.5332L72.8795 14.7001L76.6264 19.5453H76.6119C76.6748 19.6085 76.7182 19.6742 76.7424 19.7423C76.7714 19.8055 76.7859 19.8639 76.7859 19.9174C76.7859 20.0293 76.7545 20.1072 76.6917 20.1509C76.6337 20.1899 76.5443 20.2093 76.4235 20.2093H73.9739C73.8917 20.2093 73.8144 20.1777 73.742 20.1145C73.6695 20.0512 73.5898 19.9563 73.5028 19.8299L71.1329 16.4514L70.3284 17.2905V19.6474C70.3284 19.6864 70.3212 19.7374 70.3067 19.8007C70.297 19.8639 70.2729 19.9272 70.2342 19.9904C70.2004 20.0488 70.1521 20.0999 70.0893 20.1436C70.0264 20.1874 69.9443 20.2093 69.8428 20.2093H68.0237C67.9368 20.2093 67.8619 20.1874 67.7991 20.1436C67.7363 20.095 67.6855 20.0415 67.6469 19.9831C67.6131 19.9247 67.5865 19.8712 67.5672 19.8226C67.5527 19.7691 67.5454 19.7374 67.5454 19.7277V8.74573Z" fill="black"/>
	<path d="M89.0134 9.49233C89.0134 9.34153 89.0618 9.22964 89.1584 9.15667C89.2599 9.07884 89.4024 9.00587 89.586 8.93776L91.2312 8.3613C91.2553 8.35644 91.2771 8.354 91.2964 8.354C91.3205 8.354 91.3423 8.354 91.3616 8.354C91.5404 8.354 91.6588 8.40752 91.7167 8.51454C91.7795 8.6167 91.811 8.75291 91.811 8.92317L91.8037 10.9298H92.7966C92.9512 10.9298 93.0768 10.9761 93.1735 11.0685C93.2701 11.1609 93.3184 11.2996 93.3184 11.4844V12.8927C93.3184 13.097 93.2701 13.2479 93.1735 13.3451C93.0768 13.4376 92.9512 13.4838 92.7966 13.4838H91.8037L91.811 19.6425C91.811 19.8273 91.7578 19.9684 91.6515 20.0657C91.5452 20.1581 91.3978 20.2043 91.2094 20.2043H89.5715C89.1995 20.2043 89.0134 20.017 89.0134 19.6425L89.0062 13.4838H88.2597C87.8877 13.4838 87.7017 13.2868 87.7017 12.8927V11.4844C87.7017 11.1147 87.8877 10.9298 88.2597 10.9298H89.0062L89.0134 9.49233Z" fill="black"/>
	<path d="M122.85 17.2172C122.917 17.1686 122.98 17.1394 123.038 17.1297C123.101 17.1151 123.149 17.1078 123.183 17.1078C123.265 17.1078 123.34 17.1248 123.408 17.1588C123.475 17.1929 123.545 17.2659 123.618 17.3778L124.43 18.6109C124.454 18.6499 124.475 18.6936 124.495 18.7423C124.519 18.7909 124.531 18.8299 124.531 18.859C124.531 18.9709 124.495 19.0634 124.422 19.1363C124.355 19.2044 124.28 19.2652 124.198 19.3188C123.801 19.596 123.367 19.8198 122.893 19.9901C122.424 20.1555 121.927 20.2382 121.4 20.2382C120.965 20.2382 120.545 20.1822 120.139 20.0703C119.738 19.9585 119.364 19.8004 119.016 19.596C118.668 19.3869 118.349 19.1388 118.059 18.8518C117.769 18.5599 117.523 18.2364 117.32 17.8812C117.117 17.5261 116.957 17.1443 116.841 16.7356C116.73 16.3221 116.675 15.8916 116.675 15.4441C116.675 14.9965 116.73 14.566 116.841 14.1525C116.957 13.739 117.117 13.3571 117.32 13.0069C117.523 12.6517 117.769 12.3307 118.059 12.0437C118.349 11.7518 118.668 11.5037 119.016 11.2994C119.364 11.095 119.738 10.9369 120.139 10.8251C120.545 10.7132 120.965 10.6572 121.4 10.6572C121.927 10.6572 122.412 10.7278 122.857 10.8688C123.306 11.0099 123.727 11.2191 124.118 11.4964L124.096 11.4745C124.202 11.5377 124.287 11.6131 124.35 11.7007C124.413 11.7834 124.444 11.888 124.444 12.0145C124.444 12.102 124.415 12.192 124.357 12.2845L123.712 13.3863C123.577 13.6247 123.413 13.7439 123.219 13.7439C123.176 13.7439 123.123 13.7341 123.06 13.7147C122.997 13.6903 122.927 13.6514 122.85 13.5979C122.637 13.4568 122.408 13.3425 122.161 13.255C121.92 13.1625 121.661 13.1163 121.386 13.1163C121.081 13.1163 120.801 13.1796 120.545 13.306C120.289 13.4277 120.069 13.5955 119.885 13.8095C119.707 14.0236 119.567 14.2717 119.465 14.5538C119.364 14.836 119.313 15.1327 119.313 15.4441C119.313 15.7651 119.364 16.0667 119.465 16.3489C119.567 16.6262 119.707 16.867 119.885 17.0713C120.069 17.2756 120.289 17.4386 120.545 17.5602C120.801 17.6769 121.081 17.7353 121.386 17.7353C121.661 17.7353 121.92 17.6867 122.161 17.5894C122.403 17.4921 122.632 17.368 122.85 17.2172Z" fill="black"/>
	<path d="M85.3239 18.9485C84.8987 19.3425 84.4204 19.6515 83.8889 19.8752C83.3574 20.0941 82.7946 20.2036 82.2003 20.2036C81.5383 20.2036 80.9126 20.082 80.3232 19.8387C79.7337 19.5955 79.2167 19.2598 78.7722 18.8318C78.3277 18.3988 77.975 17.8904 77.7141 17.3067C77.4532 16.7229 77.3228 16.0881 77.3228 15.4022C77.3228 14.9741 77.3735 14.5606 77.4749 14.1617C77.5812 13.7579 77.7286 13.3809 77.917 13.0306C78.1103 12.6804 78.3422 12.3593 78.6128 12.0674C78.8882 11.7707 79.195 11.5177 79.5332 11.3086C79.8714 11.0994 80.2386 10.9364 80.6348 10.8197C81.031 10.7029 81.449 10.6445 81.8886 10.6445C82.2897 10.6445 82.6786 10.698 83.0555 10.8051C83.4323 10.9121 83.785 11.0629 84.1136 11.2575C84.447 11.4521 84.7514 11.6856 85.0268 11.958C85.3022 12.2304 85.5389 12.5296 85.737 12.8555C85.9351 13.1766 86.0873 13.522 86.1936 13.8917C86.3047 14.2565 86.3603 14.6336 86.3603 15.0227C86.3603 15.2757 86.3555 15.4824 86.3458 15.643C86.341 15.8035 86.3047 15.9324 86.2371 16.0297C86.1694 16.1221 86.0559 16.1878 85.8965 16.2267C85.7419 16.2608 85.5124 16.2778 85.208 16.2778H79.9898C80.0381 16.5891 80.1348 16.8494 80.2797 17.0586C80.4295 17.2678 80.601 17.4356 80.7943 17.5621C80.9875 17.6837 81.1929 17.7713 81.4103 17.8248C81.6277 17.8783 81.8331 17.905 82.0263 17.905C82.2003 17.905 82.379 17.888 82.5626 17.854C82.7462 17.815 82.9226 17.7664 83.0917 17.708C83.2656 17.6448 83.4227 17.5742 83.5628 17.4964C83.7077 17.4137 83.8237 17.3286 83.9107 17.241C83.988 17.1778 84.0532 17.1316 84.1063 17.1024C84.1643 17.0683 84.2247 17.0513 84.2875 17.0513C84.3503 17.0513 84.4132 17.0732 84.476 17.117C84.5436 17.1607 84.6185 17.224 84.7006 17.3067L85.4689 18.1823C85.522 18.2456 85.5558 18.3039 85.5703 18.3575C85.5848 18.4061 85.5921 18.4572 85.5921 18.5107C85.5921 18.608 85.5655 18.6931 85.5123 18.7661C85.4592 18.8342 85.3964 18.895 85.3239 18.9485ZM81.8379 12.8701C81.6495 12.8701 81.4659 12.909 81.2871 12.9869C81.1132 13.0598 80.9489 13.1596 80.7943 13.286C80.6397 13.4125 80.4995 13.556 80.3739 13.7166C80.2531 13.8771 80.1541 14.0401 80.0768 14.2055H83.7802C83.6788 14.0157 83.5676 13.8406 83.4468 13.6801C83.3309 13.5195 83.1956 13.3785 83.041 13.2569C82.8912 13.1352 82.7173 13.0404 82.5192 12.9723C82.3259 12.9042 82.0988 12.8701 81.8379 12.8701Z" fill="black"/>
	<path d="M66.2856 13.1285C65.7814 11.9316 64.9485 11.1051 63.7765 10.7672C63.2795 10.6211 62.3025 10.612 61.8645 10.7399C60.9128 11.0321 60.0537 11.6987 59.5567 12.5388C58.8829 13.6803 58.8324 14.0273 58.8324 17.2509L58.8325 19.5425C58.8325 19.8064 59.0462 20.0194 59.31 20.0186C59.7529 20.0173 60.4103 20.0153 60.8664 20.0141C61.143 20.0134 61.3721 19.7894 61.3796 19.5129C61.3918 19.0591 61.4088 18.2883 61.4088 17.0192C61.4088 14.4309 61.4299 14.45 61.6299 13.9618C61.9429 13.1983 63.0521 12.8676 63.8607 13.6347C64.4372 14.2604 64.223 14.2027 65.9471 13.7646C66.2294 13.6928 66.3987 13.3969 66.2856 13.1285Z" fill="black"/>
	<path d="M58.8325 10.9545C58.8325 10.8288 58.8661 10.7228 58.9332 10.6364C59.0003 10.55 59.1156 10.5068 59.2792 10.5068H60.8206C60.8625 10.5068 60.9066 10.5186 60.9527 10.5422C60.9989 10.5618 61.0408 10.5913 61.0786 10.6305C61.1205 10.6698 61.154 10.7169 61.1792 10.7719C61.2086 10.8269 61.2233 10.8877 61.2233 10.9545V19.7539C61.2233 19.9031 61.1771 20.017 61.0848 20.0955C60.9968 20.1702 60.8814 20.2075 60.7388 20.2075H59.2792C59.1156 20.2075 59.0003 20.1702 58.9332 20.0955C58.8661 20.017 58.8325 19.9031 58.8325 19.7539V10.9545Z" fill="black"/>
	<path fill-rule="evenodd" clip-rule="evenodd" d="M95.5729 8.16602C95.3654 8.16602 95.1973 8.33417 95.1973 8.54161V19.8317C95.1973 20.0391 95.3654 20.2073 95.5729 20.2073H97.2249C97.4324 20.2073 97.6005 20.0391 97.6005 19.8317V19.7567C97.6042 19.7343 97.6064 19.7114 97.607 19.6881C97.6193 19.2343 97.6363 18.4635 97.6363 17.1944C97.6363 14.7862 97.8345 14.4549 97.9299 14.2954C97.937 14.2835 97.9436 14.2725 97.9495 14.2617C98.4717 13.2481 99.6175 13.0428 100.426 13.8098C100.782 14.2617 100.872 14.4491 100.872 17.3348V19.8609C100.872 20.0617 101.005 20.2085 101.206 20.2071C101.314 20.2063 101.44 20.2043 101.575 20.2021C101.778 20.1988 102.001 20.1952 102.208 20.1952L103.025 20.1952C103.147 20.1795 103.239 20.0763 103.241 19.9535C103.241 19.9307 103.242 19.9065 103.242 19.8809C103.25 19.3779 103.266 18.3235 103.253 16.9969C103.221 14.6973 103.17 14.4496 103.055 13.893C103.049 13.8661 103.044 13.8385 103.038 13.8098C102.566 12.3396 101.673 11.326 100.342 10.9424C99.8449 10.7963 98.8679 10.7872 98.4299 10.915C98.1425 11.0033 97.8636 11.1257 97.6005 11.2766V8.54161C97.6005 8.33417 97.4324 8.16602 97.2249 8.16602H95.5729Z" fill="black"/>
</svg>
